<?xml version="1.0" encoding="UTF-8"?>
<svg width="1200pt" height="1200pt" version="1.1" viewBox="0 0 1200 1200" xmlns="http://www.w3.org/2000/svg">
 <g>
  <path d="m189.38 206.25h504.38v93.75c-35.625-9.375-71.25-15-106.88-16.875l11.25-37.5c3.75-9.375-3.75-20.625-13.125-22.5s-20.625 3.75-22.5 13.125l-13.125 46.875c-61.875 1.875-121.88 13.125-180 37.5-9.375 3.75-13.125 15-11.25 24.375 5.625 18.75 22.5 11.25 24.375 11.25 99.375-39.375 210-45 311.25-16.875v146.25c0 11.25 7.5 18.75 18.75 18.75s18.75-7.5 18.75-18.75v-298.12c0-11.25-7.5-18.75-18.75-18.75h-523.12c-11.25 0-18.75 7.5-18.75 18.75s7.5 18.75 18.75 18.75z"/>
  <path d="m131.25 450c0-11.25-7.5-18.75-18.75-18.75s-18.75 7.5-18.75 18.75v225c0 11.25 7.5 18.75 18.75 18.75s18.75-7.5 18.75-18.75z"/>
  <path d="m112.5 731.25c-11.25 0-18.75 7.5-18.75 18.75v37.5c0 11.25 7.5 18.75 18.75 18.75s18.75-7.5 18.75-18.75v-37.5c0-11.25-7.5-18.75-18.75-18.75z"/>
  <path d="m607.5 144.38c1.875 0 18.75 3.75 22.5-13.125l9.375-33.75c7.5-24.375 30-41.25 54.375-41.25h131.25c11.25 0 18.75-7.5 18.75-18.75s-7.5-18.75-18.75-18.75h-131.25c-41.25 0-78.75 28.125-90 67.5l-9.375 33.75c-3.75 9.375 3.75 20.625 13.125 24.375z"/>
  <path d="m1081.9 843.75c9.375 0 16.875-7.5 18.75-16.875 7.5-80.625-7.5-155.62-43.125-200.62-5.625-7.5-18.75-9.375-26.25-3.75s-9.375 18.75-3.75 26.25c28.125 37.5 41.25 101.25 33.75 174.38 0 9.375 7.5 20.625 20.625 20.625z"/>
  <path d="m1162.5 1143.8h-37.5c-11.25 0-18.75 7.5-18.75 18.75s7.5 18.75 18.75 18.75h37.5c11.25 0 18.75-7.5 18.75-18.75s-7.5-18.75-18.75-18.75z"/>
  <path d="m1050 1143.8h-26.25c61.875-48.75 114.38-138.75 140.62-241.88 45-185.62-3.75-356.25-110.62-388.12-30-9.375-63.75-5.625-95.625 9.375-35.625 16.875-75 26.25-112.5 28.125 3.75-22.5 9.375-61.875 7.5-103.12 18.75 11.25 41.25 22.5 56.25 22.5 22.5 0 97.5-30 120-39.375 7.5-3.75 11.25-9.375 11.25-16.875s-3.75-15-11.25-16.875c0 0-24.375-9.375-50.625-20.625-9.375-3.75-20.625 1.875-24.375 11.25-5.625 20.625 15 26.25 16.875 26.25-28.125 11.25-54.375 18.75-60 18.75s-22.5-7.5-39.375-18.75c18.75-11.25 33.75-18.75 39.375-18.75 11.25 0 18.75-7.5 18.75-18.75s-7.5-18.75-18.75-18.75c-16.875 0-45 15-65.625 28.125-7.5-28.125-22.5-50.625-46.875-63.75-9.375-3.75-20.625 0-24.375 7.5s0 20.625 7.5 24.375c46.875 24.375 37.5 144.38 30 195-39.375-1.875-78.75-11.25-116.25-30-31.875-15-65.625-18.75-95.625-9.375-91.875 26.25-142.5 157.5-123.75 316.88 1.875 9.375 11.25 16.875 20.625 16.875 9.375-1.875 16.875-11.25 16.875-20.625-15-138.75 26.25-255 97.5-275.62 22.5-5.625 45-3.75 69.375 7.5 95.625 45 202.5 45 298.12 0 24.375-11.25 46.875-13.125 69.375-7.5 84.375 26.25 123.75 183.75 84.375 343.12-26.25 108.75-82.5 198.75-146.25 234.38-26.25 15-52.5 20.625-76.875 13.125-1.875-1.875-7.5-7.5-18.75-20.625-16.875-18.75-39.375-30-61.875-30-24.375 0-46.875 11.25-61.875 30-11.25 11.25-15 16.875-18.75 20.625-24.375 5.625-50.625 1.875-76.875-13.125-63.75-37.5-120-127.5-146.25-236.25-1.875-9.375-13.125-16.875-22.5-13.125-9.375 1.875-16.875 13.125-13.125 22.5 24.375 106.88 78.75 196.88 140.62 245.62h-483.75c-45 0-80.625-31.875-88.125-75h429.38c11.25 0 18.75-7.5 18.75-18.75s-7.5-18.75-18.75-18.75h-431.25v-656.25c114.38 28.125 213.75 11.25 255 1.875 9.375-1.875 16.875-13.125 13.125-22.5-1.875-9.375-13.125-16.875-22.5-13.125-80.625 18.75-165 18.75-245.62-3.75v-131.25h56.25c11.25 0 18.75-7.5 18.75-18.75s-7.5-18.75-18.75-18.75h-75c-11.25 0-18.75 7.5-18.75 18.75v866.25c0 35.625 15 67.5 37.5 90h-18.75c-11.25 0-18.75 7.5-18.75 18.75s7.5 18.75 18.75 18.75h1012.5c11.25 0 18.75-7.5 18.75-18.75s-7.5-18.75-18.75-18.75zm-258.75 0c18.75-20.625 48.75-20.625 65.625 0z"/>
 </g>
</svg>
